<?xml version="1.0" standalone="no"?>
<!DOCTYPE svg PUBLIC "-//W3C//DTD SVG 20010904//EN"
 "http://www.w3.org/TR/2001/REC-SVG-20010904/DTD/svg10.dtd">
<svg version="1.0" xmlns="http://www.w3.org/2000/svg"
 width="224.000000pt" height="234.000000pt" viewBox="0 0 224.000000 234.000000"
 preserveAspectRatio="xMidYMid meet">

<g transform="translate(0.000000,234.000000) scale(0.100000,-0.100000)"
fill="#000000" stroke="none">
<path d="M158 2149 c-3 -21 1 -34 12 -42 14 -10 501 -483 876 -852 l92 -90
349 342 c191 188 409 399 485 470 127 119 136 131 137 166 l1 37 -177 0 -178
0 -307 -312 -308 -313 -312 313 -313 312 -176 0 -177 0 -4 -31z"/>
<path d="M151 1685 c1 -165 4 -205 15 -205 26 0 505 -475 554 -548 57 -86 60
-112 60 -484 l0 -338 135 0 135 0 0 405 0 405 -25 67 c-35 91 -53 114 -245
303 -93 91 -267 263 -389 383 -121 119 -225 217 -231 217 -7 0 -10 -67 -9
-205z"/>
<path d="M1710 1496 c-365 -364 -398 -400 -435 -471 l-40 -77 -5 -192 c-3
-105 -4 -293 -2 -418 l3 -228 129 0 130 0 0 319 c0 175 5 342 10 372 20 103
42 131 310 400 140 141 266 265 280 275 l25 19 -5 197 -5 198 -395 -394z"/>
<path d="M1570 191 c-5 -11 -10 -26 -10 -34 0 -20 33 -47 57 -47 41 0 69 60
41 88 -20 20 -76 15 -88 -7z m51 -20 c7 11 9 11 9 -3 0 -11 -8 -18 -20 -18
-11 0 -20 6 -20 13 0 22 15 30 19 11 2 -14 5 -14 12 -3z"/>
</g>
</svg>
